<mxfile host="app.diagrams.net" agent="Mozilla/5.0 (Windows NT 10.0; Win64; x64) AppleWebKit/537.36 (KHTML, like Gecko) Chrome/135.0.0.0 Safari/537.36" version="26.2.14">
  <diagram name="Page-1" id="--K3ibESrcyjvWqKMrp4">
    <mxGraphModel dx="872" dy="439" grid="1" gridSize="10" guides="1" tooltips="1" connect="1" arrows="1" fold="1" page="1" pageScale="1" pageWidth="850" pageHeight="1100" math="0" shadow="0">
      <root>
        <mxCell id="0" />
        <mxCell id="1" parent="0" />
        <mxCell id="gfyXDFxIXAniKitroGU9-1" style="edgeStyle=orthogonalEdgeStyle;rounded=0;orthogonalLoop=1;jettySize=auto;html=1;entryX=0.5;entryY=0;entryDx=0;entryDy=0;" edge="1" parent="1" source="gfyXDFxIXAniKitroGU9-2" target="gfyXDFxIXAniKitroGU9-4">
          <mxGeometry relative="1" as="geometry" />
        </mxCell>
        <mxCell id="gfyXDFxIXAniKitroGU9-2" value="" style="ellipse;html=1;shape=startState;fillColor=#000000;strokeColor=#ff0000;rounded=1;shadow=0;comic=0;labelBackgroundColor=none;fontFamily=Verdana;fontSize=12;fontColor=#000000;align=center;direction=south;" vertex="1" parent="1">
          <mxGeometry x="410" y="60" width="30" height="30" as="geometry" />
        </mxCell>
        <mxCell id="gfyXDFxIXAniKitroGU9-3" style="edgeStyle=orthogonalEdgeStyle;rounded=0;orthogonalLoop=1;jettySize=auto;html=1;entryX=0.5;entryY=0;entryDx=0;entryDy=0;strokeColor=light-dark(#000000,#EDEDED);" edge="1" parent="1" source="gfyXDFxIXAniKitroGU9-4" target="gfyXDFxIXAniKitroGU9-8">
          <mxGeometry relative="1" as="geometry" />
        </mxCell>
        <mxCell id="gfyXDFxIXAniKitroGU9-4" value="Available" style="rounded=1;whiteSpace=wrap;html=1;arcSize=24;fillColor=#ffffc0;strokeColor=#ff0000;shadow=0;comic=0;labelBackgroundColor=none;fontFamily=Verdana;fontSize=12;fontColor=#000000;align=center;" vertex="1" parent="1">
          <mxGeometry x="380" y="140" width="90" height="50" as="geometry" />
        </mxCell>
        <mxCell id="gfyXDFxIXAniKitroGU9-5" value="" style="ellipse;html=1;shape=endState;fillColor=#000000;strokeColor=#ff0000;rounded=1;shadow=0;comic=0;labelBackgroundColor=none;fontFamily=Verdana;fontSize=12;fontColor=#000000;align=center;" vertex="1" parent="1">
          <mxGeometry x="410" y="650" width="30" height="30" as="geometry" />
        </mxCell>
        <mxCell id="gfyXDFxIXAniKitroGU9-7" style="edgeStyle=orthogonalEdgeStyle;rounded=0;orthogonalLoop=1;jettySize=auto;html=1;entryX=0;entryY=0.5;entryDx=0;entryDy=0;" edge="1" parent="1" source="gfyXDFxIXAniKitroGU9-8" target="gfyXDFxIXAniKitroGU9-14">
          <mxGeometry relative="1" as="geometry" />
        </mxCell>
        <mxCell id="gfyXDFxIXAniKitroGU9-29" style="edgeStyle=orthogonalEdgeStyle;rounded=0;orthogonalLoop=1;jettySize=auto;html=1;entryX=0.5;entryY=0;entryDx=0;entryDy=0;" edge="1" parent="1" source="gfyXDFxIXAniKitroGU9-8" target="gfyXDFxIXAniKitroGU9-28">
          <mxGeometry relative="1" as="geometry" />
        </mxCell>
        <mxCell id="gfyXDFxIXAniKitroGU9-8" value="&lt;table&gt;&lt;tbody&gt;&lt;tr&gt;&lt;td data-end=&quot;863&quot; data-start=&quot;849&quot; class=&quot;max-w-[calc(var(--thread-content-max-width)*2/3)]&quot;&gt;&lt;/td&gt;&lt;/tr&gt;&lt;/tbody&gt;&lt;/table&gt;&lt;table&gt;&lt;tbody&gt;&lt;tr&gt;&lt;td data-end=&quot;874&quot; data-start=&quot;863&quot; class=&quot;max-w-[calc(var(--thread-content-max-width)*2/3)]&quot;&gt;In Cart&lt;/td&gt;&lt;/tr&gt;&lt;/tbody&gt;&lt;/table&gt;" style="rounded=1;whiteSpace=wrap;html=1;arcSize=24;fillColor=#ffffc0;strokeColor=#ff0000;shadow=0;comic=0;labelBackgroundColor=none;fontFamily=Verdana;fontSize=12;fontColor=#000000;align=center;" vertex="1" parent="1">
          <mxGeometry x="380" y="250" width="90" height="50" as="geometry" />
        </mxCell>
        <mxCell id="gfyXDFxIXAniKitroGU9-9" value="Add to Cart" style="text;html=1;align=center;verticalAlign=middle;whiteSpace=wrap;rounded=0;" vertex="1" parent="1">
          <mxGeometry x="330" y="200" width="110" height="30" as="geometry" />
        </mxCell>
        <mxCell id="gfyXDFxIXAniKitroGU9-12" style="edgeStyle=orthogonalEdgeStyle;rounded=0;orthogonalLoop=1;jettySize=auto;html=1;entryX=0.5;entryY=0;entryDx=0;entryDy=0;" edge="1" parent="1" source="gfyXDFxIXAniKitroGU9-14" target="gfyXDFxIXAniKitroGU9-18">
          <mxGeometry relative="1" as="geometry">
            <Array as="points" />
          </mxGeometry>
        </mxCell>
        <mxCell id="gfyXDFxIXAniKitroGU9-14" value="&lt;table&gt;&lt;tbody&gt;&lt;tr&gt;&lt;td data-end=&quot;930&quot; data-start=&quot;919&quot; class=&quot;max-w-[calc(var(--thread-content-max-width)*2/3)]&quot;&gt;Reserved&lt;/td&gt;&lt;/tr&gt;&lt;/tbody&gt;&lt;/table&gt;&lt;table&gt;&lt;tbody&gt;&lt;tr&gt;&lt;td data-end=&quot;950&quot; data-start=&quot;930&quot; class=&quot;max-w-[calc(var(--thread-content-max-width)*2/3)]&quot;&gt;&lt;/td&gt;&lt;/tr&gt;&lt;/tbody&gt;&lt;/table&gt;" style="rounded=1;whiteSpace=wrap;html=1;arcSize=24;fillColor=#ffffc0;strokeColor=#ff0000;shadow=0;comic=0;labelBackgroundColor=none;fontFamily=Verdana;fontSize=12;fontColor=#000000;align=center;" vertex="1" parent="1">
          <mxGeometry x="600" y="250" width="90" height="50" as="geometry" />
        </mxCell>
        <mxCell id="gfyXDFxIXAniKitroGU9-15" value="Proceed to Booking" style="text;html=1;align=center;verticalAlign=middle;whiteSpace=wrap;rounded=0;" vertex="1" parent="1">
          <mxGeometry x="490" y="240" width="90" height="30" as="geometry" />
        </mxCell>
        <mxCell id="gfyXDFxIXAniKitroGU9-16" value="&lt;table&gt;&lt;tbody&gt;&lt;tr&gt;&lt;td data-end=&quot;930&quot; data-start=&quot;919&quot; class=&quot;max-w-[calc(var(--thread-content-max-width)*2/3)]&quot;&gt;&lt;/td&gt;&lt;/tr&gt;&lt;/tbody&gt;&lt;/table&gt;&lt;table&gt;&lt;tbody&gt;&lt;tr&gt;&lt;td data-end=&quot;950&quot; data-start=&quot;930&quot; class=&quot;max-w-[calc(var(--thread-content-max-width)*2/3)]&quot;&gt;Payment Initiated&lt;/td&gt;&lt;/tr&gt;&lt;/tbody&gt;&lt;/table&gt;" style="text;html=1;align=center;verticalAlign=middle;whiteSpace=wrap;rounded=0;" vertex="1" parent="1">
          <mxGeometry x="630" y="320" width="140" height="30" as="geometry" />
        </mxCell>
        <mxCell id="gfyXDFxIXAniKitroGU9-24" style="edgeStyle=orthogonalEdgeStyle;rounded=0;orthogonalLoop=1;jettySize=auto;html=1;entryX=0.5;entryY=0;entryDx=0;entryDy=0;exitX=0.5;exitY=1;exitDx=0;exitDy=0;" edge="1" parent="1" source="gfyXDFxIXAniKitroGU9-18" target="gfyXDFxIXAniKitroGU9-21">
          <mxGeometry relative="1" as="geometry">
            <Array as="points">
              <mxPoint x="645" y="460" />
              <mxPoint x="425" y="460" />
            </Array>
          </mxGeometry>
        </mxCell>
        <mxCell id="gfyXDFxIXAniKitroGU9-37" style="edgeStyle=orthogonalEdgeStyle;rounded=0;orthogonalLoop=1;jettySize=auto;html=1;entryX=0.5;entryY=1;entryDx=0;entryDy=0;" edge="1" parent="1" source="gfyXDFxIXAniKitroGU9-18" target="gfyXDFxIXAniKitroGU9-8">
          <mxGeometry relative="1" as="geometry" />
        </mxCell>
        <mxCell id="gfyXDFxIXAniKitroGU9-46" style="edgeStyle=orthogonalEdgeStyle;rounded=0;orthogonalLoop=1;jettySize=auto;html=1;entryX=1;entryY=0.5;entryDx=0;entryDy=0;" edge="1" parent="1" source="gfyXDFxIXAniKitroGU9-18" target="gfyXDFxIXAniKitroGU9-38">
          <mxGeometry relative="1" as="geometry">
            <Array as="points">
              <mxPoint x="710" y="405" />
              <mxPoint x="710" y="585" />
            </Array>
          </mxGeometry>
        </mxCell>
        <mxCell id="gfyXDFxIXAniKitroGU9-18" value="Payment Pending" style="rounded=1;whiteSpace=wrap;html=1;arcSize=24;fillColor=#ffffc0;strokeColor=#ff0000;shadow=0;comic=0;labelBackgroundColor=none;fontFamily=Verdana;fontSize=12;fontColor=#000000;align=center;" vertex="1" parent="1">
          <mxGeometry x="600" y="380" width="90" height="50" as="geometry" />
        </mxCell>
        <mxCell id="gfyXDFxIXAniKitroGU9-20" value="Ticket available" style="text;html=1;align=center;verticalAlign=middle;whiteSpace=wrap;rounded=0;" vertex="1" parent="1">
          <mxGeometry x="425" y="100" width="90" height="30" as="geometry" />
        </mxCell>
        <mxCell id="gfyXDFxIXAniKitroGU9-40" style="edgeStyle=orthogonalEdgeStyle;rounded=0;orthogonalLoop=1;jettySize=auto;html=1;entryX=0;entryY=0.5;entryDx=0;entryDy=0;" edge="1" parent="1" source="gfyXDFxIXAniKitroGU9-21" target="gfyXDFxIXAniKitroGU9-38">
          <mxGeometry relative="1" as="geometry" />
        </mxCell>
        <mxCell id="gfyXDFxIXAniKitroGU9-42" style="edgeStyle=orthogonalEdgeStyle;rounded=0;orthogonalLoop=1;jettySize=auto;html=1;entryX=0.5;entryY=0;entryDx=0;entryDy=0;" edge="1" parent="1" source="gfyXDFxIXAniKitroGU9-21" target="gfyXDFxIXAniKitroGU9-5">
          <mxGeometry relative="1" as="geometry" />
        </mxCell>
        <mxCell id="gfyXDFxIXAniKitroGU9-21" value="Booked" style="rounded=1;whiteSpace=wrap;html=1;arcSize=24;fillColor=#ffffc0;strokeColor=#ff0000;shadow=0;comic=0;labelBackgroundColor=none;fontFamily=Verdana;fontSize=12;fontColor=#000000;align=center;" vertex="1" parent="1">
          <mxGeometry x="380" y="480" width="90" height="50" as="geometry" />
        </mxCell>
        <mxCell id="gfyXDFxIXAniKitroGU9-25" value="&lt;table&gt;&lt;tbody&gt;&lt;tr&gt;&lt;td data-end=&quot;988&quot; data-start=&quot;970&quot; class=&quot;max-w-[calc(var(--thread-content-max-width)*2/3)]&quot;&gt;&lt;/td&gt;&lt;/tr&gt;&lt;/tbody&gt;&lt;/table&gt;&lt;table&gt;&lt;tbody&gt;&lt;tr&gt;&lt;td data-end=&quot;1006&quot; data-start=&quot;988&quot; class=&quot;max-w-[calc(var(--thread-content-max-width)*2/3)]&quot;&gt;Payment Success&lt;/td&gt;&lt;/tr&gt;&lt;/tbody&gt;&lt;/table&gt;" style="text;html=1;align=center;verticalAlign=middle;whiteSpace=wrap;rounded=0;" vertex="1" parent="1">
          <mxGeometry x="485" y="460" width="100" height="30" as="geometry" />
        </mxCell>
        <mxCell id="gfyXDFxIXAniKitroGU9-26" value="Payment Failed" style="text;html=1;align=center;verticalAlign=middle;whiteSpace=wrap;rounded=0;" vertex="1" parent="1">
          <mxGeometry x="500" y="370" width="60" height="30" as="geometry" />
        </mxCell>
        <mxCell id="gfyXDFxIXAniKitroGU9-41" style="edgeStyle=orthogonalEdgeStyle;rounded=0;orthogonalLoop=1;jettySize=auto;html=1;entryX=0;entryY=0.5;entryDx=0;entryDy=0;" edge="1" parent="1" source="gfyXDFxIXAniKitroGU9-28" target="gfyXDFxIXAniKitroGU9-5">
          <mxGeometry relative="1" as="geometry">
            <Array as="points">
              <mxPoint x="275" y="665" />
            </Array>
          </mxGeometry>
        </mxCell>
        <mxCell id="gfyXDFxIXAniKitroGU9-28" value="Available" style="rounded=1;whiteSpace=wrap;html=1;arcSize=24;fillColor=#ffffc0;strokeColor=#ff0000;shadow=0;comic=0;labelBackgroundColor=none;fontFamily=Verdana;fontSize=12;fontColor=#000000;align=center;" vertex="1" parent="1">
          <mxGeometry x="230" y="380" width="90" height="50" as="geometry" />
        </mxCell>
        <mxCell id="gfyXDFxIXAniKitroGU9-30" value="Timeout" style="text;html=1;align=center;verticalAlign=middle;whiteSpace=wrap;rounded=0;" vertex="1" parent="1">
          <mxGeometry x="200" y="310" width="100" height="30" as="geometry" />
        </mxCell>
        <mxCell id="gfyXDFxIXAniKitroGU9-43" style="edgeStyle=orthogonalEdgeStyle;rounded=0;orthogonalLoop=1;jettySize=auto;html=1;entryX=1;entryY=0.5;entryDx=0;entryDy=0;" edge="1" parent="1" source="gfyXDFxIXAniKitroGU9-38" target="gfyXDFxIXAniKitroGU9-5">
          <mxGeometry relative="1" as="geometry">
            <Array as="points">
              <mxPoint x="615" y="665" />
            </Array>
          </mxGeometry>
        </mxCell>
        <mxCell id="gfyXDFxIXAniKitroGU9-38" value="Canceled" style="rounded=1;whiteSpace=wrap;html=1;arcSize=24;fillColor=#ffffc0;strokeColor=#ff0000;shadow=0;comic=0;labelBackgroundColor=none;fontFamily=Verdana;fontSize=12;fontColor=#000000;align=center;" vertex="1" parent="1">
          <mxGeometry x="570" y="560" width="90" height="50" as="geometry" />
        </mxCell>
        <mxCell id="gfyXDFxIXAniKitroGU9-44" value="Cancelation Requested" style="text;html=1;align=center;verticalAlign=middle;whiteSpace=wrap;rounded=0;" vertex="1" parent="1">
          <mxGeometry x="500" y="520" width="110" height="30" as="geometry" />
        </mxCell>
        <mxCell id="gfyXDFxIXAniKitroGU9-45" value="Cancelation Requested" style="text;html=1;align=center;verticalAlign=middle;whiteSpace=wrap;rounded=0;" vertex="1" parent="1">
          <mxGeometry x="690" y="480" width="110" height="30" as="geometry" />
        </mxCell>
      </root>
    </mxGraphModel>
  </diagram>
</mxfile>
